<?xml version="1.0" encoding="UTF-8"?>
<svg xmlns="http://www.w3.org/2000/svg" viewBox="0 0 512 512">
  <defs>
    <linearGradient id="g" x1="0" y1="0" x2="0" y2="1">
      <stop offset="0" stop-color="#fde68a"/>
      <stop offset="1" stop-color="#fbbf24"/>
    </linearGradient>
  </defs>
  <!-- full bleed for maskable -->
  <rect width="512" height="512" fill="url(#g)"/>
  <!-- safe-zone content (centered, ~80% area) -->
  <g transform="translate(96 96) scale(0.625)">
    <rect x="120" y="96" width="240" height="296" rx="20" fill="#ffffff" stroke="#92400e" stroke-width="6"/>
    <line x1="156" y1="160" x2="324" y2="160" stroke="#92400e" stroke-width="10" stroke-linecap="round"/>
    <line x1="156" y1="200" x2="324" y2="200" stroke="#fcd34d" stroke-width="10" stroke-linecap="round"/>
    <line x1="156" y1="232" x2="284" y2="232" stroke="#cbd5e1" stroke-width="8" stroke-linecap="round"/>
    <line x1="156" y1="260" x2="304" y2="260" stroke="#cbd5e1" stroke-width="8" stroke-linecap="round"/>
    <line x1="156" y1="288" x2="244" y2="288" stroke="#cbd5e1" stroke-width="8" stroke-linecap="round"/>
    <g transform="translate(196 320)">
      <rect x="0" y="0" width="88" height="44" rx="6" fill="#0e7490"/>
      <rect x="88" y="14" width="40" height="30" rx="4" fill="#0e7490"/>
      <rect x="96" y="20" width="22" height="14" rx="2" fill="#cffafe"/>
      <circle cx="22" cy="52" r="10" fill="#1f2937"/>
      <circle cx="22" cy="52" r="4" fill="#9ca3af"/>
      <circle cx="100" cy="52" r="10" fill="#1f2937"/>
      <circle cx="100" cy="52" r="4" fill="#9ca3af"/>
    </g>
  </g>
</svg>
